<?xml version="1.0" encoding="UTF-8" standalone="no"?>
<!-- Created with Inkscape (http://www.inkscape.org/) -->

<svg
   width="48"
   height="48"
   viewBox="0 0 48 48"
   version="1.1"
   id="svg1"
   inkscape:version="1.3.2 (091e20ef0f, 2023-11-25, custom)"
   sodipodi:docname="refresh.svg"
   xmlns:inkscape="http://www.inkscape.org/namespaces/inkscape"
   xmlns:sodipodi="http://sodipodi.sourceforge.net/DTD/sodipodi-0.dtd"
   xmlns="http://www.w3.org/2000/svg"
   xmlns:svg="http://www.w3.org/2000/svg">
  <sodipodi:namedview
     id="namedview1"
     pagecolor="#505050"
     bordercolor="#eeeeee"
     borderopacity="1"
     inkscape:showpageshadow="0"
     inkscape:pageopacity="0"
     inkscape:pagecheckerboard="0"
     inkscape:deskcolor="#505050"
     inkscape:document-units="px"
     inkscape:zoom="8"
     inkscape:cx="14.625"
     inkscape:cy="23.875"
     inkscape:window-width="1920"
     inkscape:window-height="1018"
     inkscape:window-x="0"
     inkscape:window-y="0"
     inkscape:window-maximized="1"
     inkscape:current-layer="svg1" />
  <defs
     id="defs1" />
  <path
     id="path14"
     style="fill:#f0f0f0;stroke-width:6.8;stroke-linecap:square"
     d="M 25.91808,0.76018358 A 22.693139,22.693139 0 0 0 14.385405,3.219564 a 3.3203812,3.3203812 0 0 0 -2.929531,0.8784834 3.3203812,3.3203812 0 0 0 -0.05994,4.6958611 3.3203812,3.3203812 0 0 0 4.695866,0.05994 3.3203812,3.3203812 0 0 0 0.899088,-1.5584186 17.967538,17.967538 0 0 1 20.525425,3.5757481 17.967538,17.967538 0 0 1 4.206984,17.889976 c -0.866088,-0.528195 -1.673378,-0.926117 -1.979864,-0.811052 -0.710207,0.266631 -1.632782,4.376433 -1.756976,5.124801 -0.124181,0.748368 -0.578514,4.93714 0.0074,5.418877 0.586004,0.481738 4.607521,-0.774811 5.317728,-1.041443 C 44.02183,37.185707 47.875806,35.484712 48,34.736342 48.08221,34.240941 46.759575,32.832062 45.681101,31.789957 A 22.693139,22.693139 0 0 0 40.901009,7.5707744 22.693139,22.693139 0 0 0 25.91808,0.76018358 Z M 9.5059793,9.4195235 C 8.2446679,9.4150272 5.2894733,10.342764 4.6902343,10.567735 3.9800367,10.834365 0.12418851,12.53536 -3.6270982e-6,13.28373 -0.08290583,13.78329 1.2638379,15.21195 2.3469861,16.256339 a 22.693139,22.693139 0 0 0 4.7539358,24.192959 22.693139,22.693139 0 0 0 26.5137241,4.353083 3.3203812,3.3203812 0 0 0 2.929531,-0.878483 3.3203812,3.3203812 0 0 0 0.05994,-4.695863 3.3203812,3.3203812 0 0 0 -4.695867,-0.05994 3.3203812,3.3203812 0 0 0 -0.893467,1.5528 A 17.967538,17.967538 0 0 1 10.485607,37.150769 17.967538,17.967538 0 0 1 6.3160923,19.283268 c 0.8509159,0.516064 1.6387481,0.901874 1.9405244,0.788576 0.7102075,-0.266632 1.6346523,-4.376433 1.7588473,-5.124803 0.124194,-0.748368 0.578514,-4.93714 -0.0074,-5.4188772 C 9.9164479,9.452894 9.739594,9.4203525 9.5060229,9.4195235 Z" />
</svg>
